<svg xmlns="http://www.w3.org/2000/svg" viewBox="0 0 64 64" width="64" height="64" role="img" aria-label="Gourishankar Mandir icon">
  <defs>
    <linearGradient id="bg" x1="12" y1="8" x2="52" y2="58" gradientUnits="userSpaceOnUse">
      <stop offset="0" stop-color="#24170f" />
      <stop offset="1" stop-color="#0c0907" />
    </linearGradient>
    <linearGradient id="gold" x1="20" y1="12" x2="46" y2="52" gradientUnits="userSpaceOnUse">
      <stop offset="0" stop-color="#ffe6a8" />
      <stop offset="0.45" stop-color="#d6a85d" />
      <stop offset="1" stop-color="#8a5d22" />
    </linearGradient>
    <radialGradient id="halo" cx="0" cy="0" r="1" gradientUnits="userSpaceOnUse" gradientTransform="translate(32 28) scale(18)">
      <stop offset="0" stop-color="#fff2cc" stop-opacity="0.65" />
      <stop offset="0.55" stop-color="#f0c879" stop-opacity="0.18" />
      <stop offset="1" stop-color="#f0c879" stop-opacity="0" />
    </radialGradient>
  </defs>
  <rect x="2" y="2" width="60" height="60" rx="16" fill="url(#bg)" />
  <rect x="4.5" y="4.5" width="55" height="55" rx="13.5" fill="none" stroke="#d6a85d" stroke-opacity="0.24" stroke-width="1" />
  <circle cx="32" cy="28" r="18" fill="url(#halo)" />
  <circle cx="32" cy="16" r="3.2" fill="#fff1c7" opacity="0.92" />

  <path d="M32 13.2 21.4 24h21.2L32 13.2Z" fill="url(#gold)" />
  <path d="M32 18.2 23.8 27h16.4L32 18.2Z" fill="#f7d78a" />
  <path d="M32 22.4 26.8 28h10.4L32 22.4Z" fill="#2a1a10" />

  <path d="M22.8 28h18.4c1.1 0 2 .9 2 2v13.8c0 1.1-.9 2-2 2H22.8c-1.1 0-2-.9-2-2V30c0-1.1.9-2 2-2Z" fill="url(#gold)" />
  <path d="M26.6 31.2h10.8c.8 0 1.4.6 1.4 1.4v9.2H25.2v-9.2c0-.8.6-1.4 1.4-1.4Z" fill="#120b08" />
  <path d="M24.8 45.8h14.4v2.5H24.8z" fill="#f0c879" />
  <path d="M21 48.8h22v2.7H21z" fill="#8a5d22" />

  <path d="M30.2 31.5h3.6v9.6h-3.6z" fill="url(#gold)" />
  <path d="M27 24.8h10l1.6 3.2H25.4L27 24.8Z" fill="#f7d78a" />
  <path d="M29.2 10.4h5.6v3.2h-5.6z" fill="#fff1c7" />
  <circle cx="32" cy="28.3" r="1.8" fill="#fff1c7" opacity="0.75" />
</svg>
