<svg xmlns="http://www.w3.org/2000/svg" width="640" height="800" viewBox="0 0 640 800" fill="none" role="img" aria-label="Placeholder portrait for Dr. Gouri Maharaj">
  <rect width="640" height="800" rx="36" fill="#19112a"/>
  <defs>
    <linearGradient id="g" x1="0" y1="0" x2="640" y2="800" gradientUnits="userSpaceOnUse">
      <stop offset="0" stop-color="#31214b"/>
      <stop offset="0.55" stop-color="#1b1731"/>
      <stop offset="1" stop-color="#0f0a18"/>
    </linearGradient>
    <radialGradient id="r" cx="0" cy="0" r="1" gradientUnits="userSpaceOnUse" gradientTransform="translate(320 255) rotate(90) scale(250 220)">
      <stop stop-color="#7d5cff" stop-opacity="0.8"/>
      <stop offset="1" stop-color="#7d5cff" stop-opacity="0"/>
    </radialGradient>
  </defs>
  <rect width="640" height="800" rx="36" fill="url(#g)"/>
  <circle cx="320" cy="255" r="210" fill="url(#r)"/>
  <circle cx="320" cy="245" r="118" fill="#efe8ff" opacity="0.92"/>
  <path d="M198 555c18-76 75-122 122-122s104 46 122 122c6 25-13 49-39 49H237c-26 0-45-24-39-49Z" fill="#efe8ff" opacity="0.92"/>
  <path d="M233 206c18-36 54-59 87-59 39 0 77 25 95 64 8 18 4 39-12 52-20 16-49 25-85 25-37 0-69-10-91-30-15-14-19-35-11-52Z" fill="#ffffff" opacity="0.2"/>
  <circle cx="320" cy="232" r="18" fill="#0f0a18" opacity="0.24"/>
  <rect x="194" y="650" width="252" height="18" rx="9" fill="#b8a3ff" opacity="0.5"/>
  <text x="320" y="742" text-anchor="middle" font-family="Arial, Helvetica, sans-serif" font-size="50" font-weight="700" fill="#efe8ff">Dr. GM</text>
  <text x="320" y="782" text-anchor="middle" font-family="Arial, Helvetica, sans-serif" font-size="24" fill="#c8bdf0">Placeholder portrait</text>
</svg>
