<svg xmlns="http://www.w3.org/2000/svg" width="640" height="800" viewBox="0 0 640 800" fill="none" role="img" aria-label="Placeholder portrait for Vishwaram Maharaj">
  <rect width="640" height="800" rx="36" fill="#161125"/>
  <defs>
    <linearGradient id="g" x1="0" y1="0" x2="640" y2="800" gradientUnits="userSpaceOnUse">
      <stop offset="0" stop-color="#2d1d56"/>
      <stop offset="0.55" stop-color="#1c1636"/>
      <stop offset="1" stop-color="#0e0a19"/>
    </linearGradient>
    <radialGradient id="r" cx="0" cy="0" r="1" gradientUnits="userSpaceOnUse" gradientTransform="translate(320 250) rotate(90) scale(245 220)">
      <stop stop-color="#8a6bff" stop-opacity="0.8"/>
      <stop offset="1" stop-color="#8a6bff" stop-opacity="0"/>
    </radialGradient>
  </defs>
  <rect width="640" height="800" rx="36" fill="url(#g)"/>
  <circle cx="320" cy="250" r="210" fill="url(#r)"/>
  <circle cx="320" cy="242" r="122" fill="#efe8ff" opacity="0.92"/>
  <path d="M190 562c17-77 77-126 130-126s113 49 130 126c5 24-13 46-38 46H228c-25 0-43-22-38-46Z" fill="#efe8ff" opacity="0.92"/>
  <path d="M231 204c16-34 53-57 89-57 40 0 78 25 94 64 8 18 5 38-9 51-20 18-50 27-85 27-40 0-73-10-95-31-16-15-20-36-12-54Z" fill="#ffffff" opacity="0.2"/>
  <rect x="194" y="650" width="252" height="18" rx="9" fill="#b9a5ff" opacity="0.5"/>
  <text x="320" y="742" text-anchor="middle" font-family="Arial, Helvetica, sans-serif" font-size="50" font-weight="700" fill="#efe8ff">VM</text>
  <text x="320" y="782" text-anchor="middle" font-family="Arial, Helvetica, sans-serif" font-size="24" fill="#c8bdf0">Placeholder portrait</text>
</svg>
